<svg version="1.2" xmlns="http://www.w3.org/2000/svg" viewBox="0 0 800 800" width="800" height="800">
	<title>plus_white</title>
	<style>
		.s0 { fill: #000000;stroke: #ffffff;stroke-width: 1.6 } 
	</style>
	<g id="SVGRepo_bgCarrier">
	</g>
	<g id="SVGRepo_tracerCarrier">
	</g>
	<g id="SVGRepo_iconCarrier">
		<path class="s0" d="m617.2 369h-186.2v-186.2c0-17.1-13.9-31-31-31-17.1 0-31 13.9-31 31v186.2h-186.2c-17.1 0-31 13.9-31 31 0 17.1 13.9 31 31 31h186.2v186.2c0 17.1 13.9 31 31 31 17.1 0 31-13.9 31-31v-186.2h186.2c17.1 0 31-13.9 31-31 0-17.1-13.9-31-31-31z"/>
	</g>
</svg>