<svg version="1.2" xmlns="http://www.w3.org/2000/svg" viewBox="0 0 800 800" width="800" height="800">
	<title>collectionreferenceminor-svgrepo-com</title>
	<style>
		.s0 { fill: #ffffff } 
	</style>
	<path class="s0" d="m246.9 126.8l-80 80c-7.4 7.5-14.1 15.6-19.9 24.3-5.9 8.7-10.8 18-14.8 27.7-4 9.6-7.1 19.7-9.1 30-2.1 10.3-3.1 20.7-3.1 31.2v286.8c-10.5 0-20.9-2-30.6-6-9.7-4.1-18.5-10-26-17.4-7.4-7.4-13.3-16.2-17.3-25.9-4-9.8-6.1-20.2-6.1-30.7v-286.8c0-5.2 0.5-10.5 1.5-15.6 1.1-5.1 2.6-10.2 4.6-15 2-4.9 4.5-9.5 7.4-13.8 2.9-4.4 6.2-8.5 9.9-12.2l80-80c7.5-7.4 16.3-13.3 26-17.3 9.7-4 20.1-6.1 30.6-6.1 10.5 0 20.9 2.1 30.6 6.1 9.7 4 18.5 9.9 26 17.3l8 8.1q-2.3 1.7-4.6 3.6-2.3 1.8-4.5 3.7-2.2 2-4.4 4-2.1 2-4.2 4zm344.8 191.8c3.7-3.7 8.1-6.7 13-8.7 4.8-2 10-3 15.3-3 5.3 0 10.5 1 15.3 3 4.9 2 9.3 5 13 8.7l100 100c3.7 3.7 6.6 8.1 8.7 13 2 4.8 3 10 3 15.3 0 5.3-1 10.5-3 15.3-2.1 4.9-5 9.3-8.7 13l-100 100c-7.6 7.2-17.7 11.3-28.2 11.2-10.4-0.1-20.5-4.3-27.9-11.7-7.4-7.4-11.6-17.5-11.7-28-0.1-10.5 3.9-20.6 11.2-28.1l31.7-31.7h-63.4c-44.2 0-80 19.3-80 57.1v108.6c0 18.9-17.9 34.3-40 34.3-22.1 0-40-15.4-40-34.3v-108.6c0-75.7 71.6-137.1 160-137.1h63.4l-31.7-31.7c-3.7-3.8-6.6-8.2-8.6-13-2.1-4.9-3.1-10.1-3.1-15.3 0-5.3 1-10.5 3.1-15.3 2-4.9 4.9-9.3 8.6-13z"/>
	<path fill-rule="evenodd" class="s0" d="m223.4 263.4l80-80c7.5-7.4 16.3-13.3 26-17.3 9.7-4 20.1-6.1 30.6-6.1 10.5 0 20.9 2.1 30.6 6.1 9.7 4 18.5 9.9 26 17.3l80 80c3.7 3.7 7 7.8 9.9 12.2 2.9 4.3 5.4 8.9 7.4 13.8 2 4.8 3.5 9.9 4.6 15 1 5.1 1.5 10.4 1.5 15.6v10.2c-27.7 4.7-54.4 14.2-78.9 28.2-24.4 13.9-46.2 32.1-64.4 53.6-18.2 21.4-32.4 46-42.1 72.4-9.6 26.4-14.6 54.3-14.6 82.5v120h-40c-10.5 0-20.9-2.1-30.6-6.1-9.7-4-18.5-9.9-26-17.4-7.4-7.4-13.3-16.2-17.3-25.9-4-9.7-6.1-20.1-6.1-30.6v-286.9c0-5.2 0.5-10.5 1.5-15.6 1.1-5.1 2.6-10.2 4.6-15 2-4.9 4.5-9.5 7.4-13.8 2.9-4.4 6.2-8.5 9.9-12.2zm164.9 51.8c7.7-7.5 12.1-17.7 12.2-28.5 0.1-10.7-4.1-21-11.7-28.6-7.6-7.6-17.9-11.8-28.7-11.7-10.7 0.1-20.9 4.5-28.4 12.2-7.3 7.5-11.3 17.6-11.2 28.1 0.1 10.5 4.3 20.6 11.7 28 7.4 7.4 17.5 11.6 27.9 11.7 10.5 0.1 20.6-4 28.2-11.2z"/>
</svg>